<?xml version="1.0" encoding="UTF-8" standalone="no"?>
<svg
   xmlns:dc="http://purl.org/dc/elements/1.1/"
   xmlns:cc="http://creativecommons.org/ns#"
   xmlns:rdf="http://www.w3.org/1999/02/22-rdf-syntax-ns#"
   xmlns:svg="http://www.w3.org/2000/svg"
   xmlns="http://www.w3.org/2000/svg"
   id="svg70"
   xml:space="preserve"
   viewBox="0 0 550 445"
   height="445"
   width="550"
   version="1.1"><metadata
     id="metadata74"><rdf:RDF><cc:Work
         rdf:about=""><dc:format>image/svg+xml</dc:format><dc:type
           rdf:resource="http://purl.org/dc/dcmitype/StillImage" /></cc:Work></rdf:RDF></metadata><defs
     id="defs4"><style
       id="style2"
       type="text/css">@import url(&quot;https://fonts.googleapis.com/css2?family=Yeseva+One:wght@400&quot;);</style></defs><defs
     id="defs6" /><g
     id="icon"
     transform="matrix(0.23 0 0 0.23 80.43 222.5)"><g
       id="g35"
       style=""><g
         id="icon_piece"
         transform="matrix(1 0 0 1 70.11 -176.88)"><linearGradient
           y2="158.1656978263723"
           x2="0"
           y1="0"
           x1="0"
           gradientTransform="matrix(1 0 0 1 185.94 0.04)"
           gradientUnits="userSpaceOnUse"
           id="SVGID_5"><stop
             id="stop8"
             style="stop-color:rgb(94,78,44);stop-opacity: 1"
             offset="0%" /></linearGradient><path
           id="path11"
           stroke-linecap="round"
           d="M 199.27 79.251 c -4.726 4.732 -8.95 9.808 -13.326 14.785 c 43.793 9.596 86.906 32.061 125.259 64.169 c 21.599 -53.788 63.911 -94.925 119.773 -113.938 l 35.301 -12.018 C 400.239 -24.068 283.884 -5.377 199.27 79.251 z"
           transform=" translate(-326.11, -79.12)"
           style="stroke: none; stroke-width: 1; stroke-dasharray: none; stroke-linecap: butt; stroke-dashoffset: 0; stroke-linejoin: miter; stroke-miterlimit: 4; fill: #ffffff; fill-rule: nonzero; opacity: 1;" /></g><g
         id="g19"
         transform="matrix(1 0 0 1 167.54 -64.5)"><linearGradient
           y2="269.93600000000004"
           x2="0"
           y1="0"
           x1="0"
           gradientTransform="matrix(1 0 0 1 335.07 56.53)"
           gradientUnits="userSpaceOnUse"
           id="SVGID_6"><stop
             id="stop14"
             style="stop-color:rgb(94,78,44);stop-opacity: 1"
             offset="0%" /></linearGradient><path
           id="path17"
           stroke-linecap="round"
           d="M 488.063 56.528 L 440.649 72.67 c -51.01 17.371 -88.954 56.239 -105.578 106.762 c 42.189 42.653 70.964 94.195 82.419 147.032 c 5.139 -4.501 10.367 -8.869 15.248 -13.744 C 512.983 232.463 533.946 124.039 488.063 56.528 z"
           transform=" translate(-423.53, -191.5)"
           style="stroke: none; stroke-width: 1; stroke-dasharray: none; stroke-linecap: butt; stroke-dashoffset: 0; stroke-linejoin: miter; stroke-miterlimit: 4; fill: #ffffff; fill-rule: nonzero; opacity: 1;" /></g><g
         id="g26"
         transform="matrix(1 0 0 1 -87.51 82.07)"><linearGradient
           y2="347.78700000000003"
           x2="0"
           y1="0"
           x1="0"
           gradientTransform="matrix(1 0 0 1 0 164.17)"
           gradientUnits="userSpaceOnUse"
           id="SVGID_7"><stop
             id="stop21"
             style="stop-color:rgb(94,78,44);stop-opacity: 1"
             offset="0%" /></linearGradient><path
           id="path24"
           stroke-linecap="round"
           d="M 322.6 444.63 c -19.229 -58.522 -68.693 -100.897 -129.09 -112.843 C 123.367 317.865 67.263 267.17 44.223 199.474 l -12.017 -35.302 c -56.317 66.038 -37.612 183.981 47.003 268.61 c 52.673 52.673 118.302 79.177 176.296 79.177 c 30.282 0 58.298 -7.907 81.469 -23.596 L 322.6 444.63 z"
           transform=" translate(-168.49, -338.07)"
           style="stroke: none; stroke-width: 1; stroke-dasharray: none; stroke-linecap: butt; stroke-dashoffset: 0; stroke-linejoin: miter; stroke-miterlimit: 4; fill: #ffffff; fill-rule: nonzero; opacity: 1;" /></g><g
         id="g33"
         transform="matrix(1 0 0 1 -31.21 36.74)"><linearGradient
           y2="347.6972134482711"
           x2="0"
           y1="0"
           x1="0"
           gradientTransform="matrix(1 0 0 1 56.49 118.89)"
           gradientUnits="userSpaceOnUse"
           id="SVGID_8"><stop
             id="stop28"
             style="stop-color:rgb(94,78,44);stop-opacity: 1"
             offset="0%" /></linearGradient><path
           id="path31"
           stroke-linecap="round"
           d="M 312.677 199.312 c -80.244 -80.244 -188.678 -102.817 -256.192 -56.928 l 16.141 47.417 c 19.61 57.583 67.052 100.7 126.717 112.542 c 71.008 14.055 129.177 64.112 151.776 132.906 l 10.301 31.34 C 417.811 400.567 397.322 283.972 312.677 199.312 z"
           transform=" translate(-224.79, -292.74)"
           style="stroke: none; stroke-width: 1; stroke-dasharray: none; stroke-linecap: butt; stroke-dashoffset: 0; stroke-linejoin: miter; stroke-miterlimit: 4; fill: #ffffff; fill-rule: nonzero; opacity: 1;" /></g></g></g><g
     id="logo-name"
     style=""
     transform="matrix(1.61 0 0 1.61 346.82 223.3)"><linearGradient
       y2="33.89999999999999"
       x2="0"
       y1="0"
       x1="0"
       gradientTransform="matrix(1 0 0 1 -113.4 -16.95)"
       gradientUnits="userSpaceOnUse"
       id="SVGID_2"><stop
         id="stop38"
         style="stop-color:rgb(255,255,255);stop-opacity: 1"
         offset="0%" /></linearGradient><text
       id="text67"
       style="stroke: none; stroke-width: 1; stroke-dasharray: none; stroke-linecap: butt; stroke-dashoffset: 0; stroke-linejoin: miter; stroke-miterlimit: 4; fill: #ffffff; fill-rule: nonzero; opacity: 1; white-space: pre;"
       font-weight="normal"
       font-style="normal"
       font-size="30"
       font-family="Yeseva One"
       xml:space="preserve"><tspan
         id="tspan41"
         y="9.42"
         x="-113.4">c</tspan><tspan
         id="tspan43"
         y="9.42"
         x="-96.6">o</tspan><tspan
         id="tspan45"
         y="9.42"
         x="-77.4">o</tspan><tspan
         id="tspan47"
         y="9.42"
         x="-58.2">l</tspan><tspan
         id="tspan49"
         y="9.42"
         x="-47.1">d</tspan><tspan
         id="tspan51"
         y="9.42"
         x="-27.6">o</tspan><tspan
         id="tspan53"
         y="9.42"
         x="-8.4">w</tspan><tspan
         id="tspan55"
         y="9.42"
         x="17.55">n</tspan><tspan
         id="tspan57"
         style="white-space: pre; "
         y="9.42"
         x="38.4" /><tspan
         id="tspan59"
         y="9.42"
         x="47.7">c</tspan><tspan
         id="tspan61"
         y="9.42"
         x="64.5">a</tspan><tspan
         id="tspan63"
         y="9.42"
         x="83.55">f</tspan><tspan
         id="tspan65"
         y="9.42"
         x="96.6">é</tspan></text>
</g></svg>