<?xml version="1.0" encoding="UTF-8" standalone="no"?>
<svg
   xmlns:dc="http://purl.org/dc/elements/1.1/"
   xmlns:cc="http://creativecommons.org/ns#"
   xmlns:rdf="http://www.w3.org/1999/02/22-rdf-syntax-ns#"
   xmlns:svg="http://www.w3.org/2000/svg"
   xmlns="http://www.w3.org/2000/svg"
   id="svg99"
   xml:space="preserve"
   viewBox="0 0 550 445"
   height="445"
   width="550"
   version="1.1"><metadata
     id="metadata103"><rdf:RDF><cc:Work
         rdf:about=""><dc:format>image/svg+xml</dc:format><dc:type
           rdf:resource="http://purl.org/dc/dcmitype/StillImage" /></cc:Work></rdf:RDF></metadata><defs
     id="defs4"><style
       id="style2"
       type="text/css">@import url(&quot;https://fonts.googleapis.com/css2?family=Crushed:wght@400&quot;);</style></defs><defs
     id="defs6" /><g
     id="container-outline"
     transform="matrix(1 0 0 1 275 161.72)"><linearGradient
       y2="1.2"
       x2="0"
       y1="0"
       x1="0"
       gradientTransform="matrix(1 0 0 1 -60 -60)"
       gradientUnits="userSpaceOnUse"
       id="SVGID_4"><stop
         id="stop8"
         style="stop-color:rgb(255,255,255);stop-opacity: 1"
         offset="0%" /></linearGradient><rect
       id="rect11"
       height="120"
       width="120"
       ry="5"
       rx="5"
       y="-60"
       x="-60"
       style="stroke: url(#SVGID_4); stroke-width: 5; stroke-dasharray: none; stroke-linecap: butt; stroke-dashoffset: 0; stroke-linejoin: miter; stroke-miterlimit: 4; fill: rgb(0,0,0); fill-opacity: 0; fill-rule: nonzero; opacity: 1;" /></g><g
     id="icon"
     transform="matrix(0.2 0 0 0.2 275 161.72)"><g
       id="g90"
       style=""><g
         id="icon_piece"
         transform="matrix(1 0 0 1 170.45 49.56)"><linearGradient
           y2="180.0847271065391"
           x2="158.17830886059863"
           y1="0"
           x1="0"
           gradientTransform="matrix(1 0 0 1 347.36 215.52)"
           gradientUnits="userSpaceOnUse"
           id="SVGID_6"><stop
             id="stop14"
             style="stop-color:rgb(179,154,124);stop-opacity: 1"
             offset="0%" /></linearGradient><path
           id="path17"
           stroke-linecap="round"
           d="M 354.986 395.6 c -4.087 0 -7.469 -3.236 -7.618 -7.353 c -0.152 -4.211 3.138 -7.746 7.348 -7.899 c 101.628 -3.667 127.602 -68.493 133.26 -89.472 c 0.276 -1.02 0.52 -1.923 0.74 -2.694 l 0.524 -2.593 c 5.214 -24.328 -9.571 -48.029 -33.64 -54.045 c -10.463 -2.617 -27.775 1.636 -36.977 8.022 c -6.784 4.708 -15.272 13.861 -17.184 30.736 c -0.474 4.187 -4.251 7.185 -8.438 6.721 c -4.186 -0.474 -7.195 -4.251 -6.721 -8.438 c 2.554 -22.557 14.268 -35.048 23.645 -41.554 c 12.902 -8.952 34.55 -13.992 49.373 -10.289 c 15.459 3.864 28.605 13.442 37.018 26.97 c 8.393 13.496 11.184 29.472 7.859 44.987 l -0.567 2.807 c -0.043 0.208 -0.094 0.415 -0.153 0.619 c -0.221 0.758 -0.466 1.672 -0.75 2.723 c -2.79 10.345 -9.325 34.569 -29.39 56.436 c -24.795 27.023 -70.322 42.586 -118.051 44.308 C 355.172 395.598 355.079 395.6 354.986 395.6 z"
           transform=" translate(-426.45, -305.56)"
           style="stroke: none; stroke-width: 1; stroke-dasharray: none; stroke-linecap: butt; stroke-dashoffset: 0; stroke-linejoin: miter; stroke-miterlimit: 4; fill: url(#SVGID_6); fill-rule: nonzero; opacity: 1;" /></g><g
         id="g25"
         transform="matrix(1 0 0 1 -25.7 202.61)"><linearGradient
           y2="106.78399999999999"
           x2="447.69"
           y1="0"
           x1="0"
           gradientTransform="matrix(1 0 0 1 6.46 405.22)"
           gradientUnits="userSpaceOnUse"
           id="SVGID_7"><stop
             id="stop20"
             style="stop-color:rgb(167,137,102);stop-opacity: 1"
             offset="0%" /></linearGradient><path
           id="path23"
           stroke-linecap="round"
           d="M 454.146 458.603 c 0 2.166 -0.539 4.302 -1.597 6.397 C 439.307 491.475 344.86 512 230.306 512 c -123.626 0 -223.85 -23.901 -223.85 -53.397 c 0 -10.303 12.246 -19.935 33.472 -28.102 c 39.473 -15.175 109.977 -25.285 190.377 -25.285 C 353.933 405.217 454.146 429.118 454.146 458.603 z"
           transform=" translate(-230.3, -458.61)"
           style="stroke: none; stroke-width: 1; stroke-dasharray: none; stroke-linecap: butt; stroke-dashoffset: 0; stroke-linejoin: miter; stroke-miterlimit: 4; fill: url(#SVGID_7); fill-rule: nonzero; opacity: 1;" /></g><g
         id="g32"
         transform="matrix(1 0 0 1 -9.76 191.76)"><linearGradient
           y2="85.09000000000003"
           x2="415.813"
           y1="0"
           x1="0"
           gradientTransform="matrix(1 0 0 1 38.33 405.21)"
           gradientUnits="userSpaceOnUse"
           id="SVGID_8"><stop
             id="stop27"
             style="stop-color:rgb(179,154,124);stop-opacity: 1"
             offset="0%" /></linearGradient><path
           id="path30"
           stroke-linecap="round"
           d="M 454.146 458.603 c 0 2.166 -0.539 4.302 -1.597 6.397 c -39.463 15.185 -109.967 25.305 -190.377 25.305 c -123.626 0 -223.839 -23.912 -223.839 -53.397 c 0 -2.166 0.539 -4.302 1.597 -6.408 c 39.473 -15.175 109.977 -25.285 190.377 -25.285 C 353.933 405.217 454.146 429.118 454.146 458.603 z"
           transform=" translate(-246.24, -447.76)"
           style="stroke: none; stroke-width: 1; stroke-dasharray: none; stroke-linecap: butt; stroke-dashoffset: 0; stroke-linejoin: miter; stroke-miterlimit: 4; fill: url(#SVGID_8); fill-rule: nonzero; opacity: 1;" /></g><g
         id="g39"
         transform="matrix(1 0 0 1 -27.56 73.13)"><linearGradient
           y2="258.938"
           x2="356.874"
           y1="0"
           x1="0"
           gradientTransform="matrix(1 0 0 1 50 199.66)"
           gradientUnits="userSpaceOnUse"
           id="SVGID_9"><stop
             id="stop34"
             style="stop-color:rgb(192,171,145);stop-opacity: 1"
             offset="0%" /></linearGradient><path
           id="path37"
           stroke-linecap="round"
           d="M 406.872 199.664 v 25.864 c 0 43.348 -7.984 84.906 -22.335 120.656 c -14.361 35.74 -35.089 65.683 -60.577 85.801 c -22.152 17.484 -46.796 26.617 -71.806 26.617 h -47.437 c -12.51 0 -24.919 -2.288 -36.971 -6.753 c -12.063 -4.465 -23.759 -11.117 -34.835 -19.864 C 81.934 391.75 49.998 312.225 49.998 225.529 v -25.864 H 406.872 z"
           transform=" translate(-228.44, -329.13)"
           style="stroke: none; stroke-width: 1; stroke-dasharray: none; stroke-linecap: butt; stroke-dashoffset: 0; stroke-linejoin: miter; stroke-miterlimit: 4; fill: url(#SVGID_9); fill-rule: nonzero; opacity: 1;" /></g><g
         id="g46"
         transform="matrix(1 0 0 1 -10.27 73.13)"><linearGradient
           y2="258.938"
           x2="322.29299999999995"
           y1="0"
           x1="0"
           gradientTransform="matrix(1 0 0 1 84.58 199.66)"
           gradientUnits="userSpaceOnUse"
           id="SVGID_10"><stop
             id="stop41"
             style="stop-color:rgb(217,204,188);stop-opacity: 1"
             offset="0%" /></linearGradient><path
           id="path44"
           stroke-linecap="round"
           d="M 406.872 199.664 v 25.864 c 0 43.348 -7.984 84.906 -22.335 120.656 c -14.361 35.74 -35.089 65.683 -60.577 85.801 c -22.152 17.484 -46.796 26.617 -71.806 26.617 h -12.856 c -12.51 0 -24.919 -2.288 -36.971 -6.753 c -12.063 -4.465 -23.759 -11.117 -34.835 -19.864 c -50.976 -40.236 -82.913 -119.761 -82.913 -206.457 v -25.864 H 406.872 z"
           transform=" translate(-245.73, -329.13)"
           style="stroke: none; stroke-width: 1; stroke-dasharray: none; stroke-linecap: butt; stroke-dashoffset: 0; stroke-linejoin: miter; stroke-miterlimit: 4; fill: url(#SVGID_10); fill-rule: nonzero; opacity: 1;" /></g><g
         id="g53"
         transform="matrix(1 0 0 1 -27.56 -56.34)"><linearGradient
           y2="100.28500000000003"
           x2="356.87300000000005"
           y1="0"
           x1="0"
           gradientTransform="matrix(1 0 0 1 50 149.52)"
           gradientUnits="userSpaceOnUse"
           id="SVGID_11"><stop
             id="stop48"
             style="stop-color:rgb(235,229,221);stop-opacity: 1"
             offset="0%" /></linearGradient><path
           id="path51"
           stroke-linecap="round"
           d="M 406.872 199.664 c 0 6.967 -5.045 13.588 -14.158 19.609 c -2.553 1.688 -5.421 3.316 -8.584 4.902 c -20.057 10.049 -52.054 17.941 -90.581 22.193 c -14.829 1.637 -30.614 2.716 -47.05 3.183 c -5.94 0.163 -11.961 0.254 -18.063 0.254 c -4.526 0 -9.011 -0.041 -13.456 -0.142 c -18.104 -0.376 -35.455 -1.505 -51.647 -3.306 c -35.872 -3.946 -66.08 -11.066 -86.259 -20.138 c -4.933 -2.207 -9.255 -4.536 -12.927 -6.957 c -9.113 -6.011 -14.148 -12.642 -14.148 -19.599 c 0 -13.039 17.707 -24.908 46.735 -33.828 c 13.283 -4.078 28.946 -7.547 46.348 -10.222 c 21.369 -3.265 45.403 -5.36 70.941 -5.93 c 4.75 -0.112 9.561 -0.163 14.412 -0.163 c 6.397 0 12.703 0.092 18.918 0.285 c 23.861 0.702 46.318 2.726 66.436 5.808 c 19.945 3.061 37.591 7.15 52.003 12.032 C 391.453 176.343 406.872 187.5 406.872 199.664 z"
           transform=" translate(-228.44, -199.66)"
           style="stroke: none; stroke-width: 1; stroke-dasharray: none; stroke-linecap: butt; stroke-dashoffset: 0; stroke-linejoin: miter; stroke-miterlimit: 4; fill: url(#SVGID_11); fill-rule: nonzero; opacity: 1;" /></g><g
         id="g60"
         transform="matrix(1 0 0 1 -27.57 -36.73)"><linearGradient
           y2="61.077"
           x2="328.567"
           y1="0"
           x1="0"
           gradientTransform="matrix(1 0 0 1 64.15 188.73)"
           gradientUnits="userSpaceOnUse"
           id="SVGID_12"><stop
             id="stop55"
             style="stop-color:rgb(85,68,49);stop-opacity: 1"
             offset="0%" /></linearGradient><path
           id="path58"
           stroke-linecap="round"
           d="M 392.714 219.274 c -2.553 1.688 -5.421 3.316 -8.584 4.902 c -20.057 10.049 -52.054 17.941 -90.581 22.193 c -13.863 1.536 -28.56 2.573 -43.846 3.082 c -1.068 0.041 -2.136 0.071 -3.204 0.102 c -5.94 0.163 -11.961 0.254 -18.063 0.254 c -4.526 0 -9.011 -0.041 -13.456 -0.142 c -18.104 -0.376 -35.455 -1.505 -51.647 -3.306 c -35.872 -3.946 -66.08 -11.066 -86.259 -20.138 c -4.933 -2.207 -9.255 -4.536 -12.927 -6.957 c 7.964 -5.258 19.04 -10.049 32.587 -14.219 c 13.283 -4.078 28.946 -7.547 46.348 -10.212 c 21.369 -3.275 45.403 -5.36 70.941 -5.94 c 4.75 -0.112 9.561 -0.163 14.412 -0.163 c 6.397 0 12.703 0.102 18.918 0.285 c 0.814 0.02 1.638 0.051 2.451 0.081 c 22.945 0.763 44.558 2.746 63.985 5.736 c 19.945 3.051 37.591 7.15 52.003 12.032 C 376.776 210.588 385.879 214.758 392.714 219.274 z"
           transform=" translate(-228.43, -219.27)"
           style="stroke: none; stroke-width: 1; stroke-dasharray: none; stroke-linecap: butt; stroke-dashoffset: 0; stroke-linejoin: miter; stroke-miterlimit: 4; fill: url(#SVGID_12); fill-rule: nonzero; opacity: 1;" /></g><g
         id="g67"
         transform="matrix(1 0 0 1 -1.97 -36.73)"><linearGradient
           y2="60.35400000000001"
           x2="277.37316341228376"
           y1="0"
           x1="0"
           gradientTransform="matrix(1 0 0 1 115.34 189.1)"
           gradientUnits="userSpaceOnUse"
           id="SVGID_13"><stop
             id="stop62"
             style="stop-color:rgb(106,86,61);stop-opacity: 1"
             offset="0%" /></linearGradient><path
           id="path65"
           stroke-linecap="round"
           d="M 392.714 219.274 c -2.553 1.688 -5.421 3.316 -8.584 4.902 c -20.057 10.049 -52.054 17.941 -90.581 22.193 c -13.863 1.536 -28.56 2.573 -43.846 3.082 c -15.185 -0.519 -29.78 -1.566 -43.531 -3.092 c -35.872 -3.946 -66.08 -11.066 -86.259 -20.138 c -0.05 -0.022 -0.099 -0.044 -0.147 -0.066 c -5.948 -2.671 -5.876 -11.141 0.072 -13.812 c 5.786 -2.599 12.398 -5.039 19.735 -7.298 c 13.283 -4.078 28.946 -7.547 46.348 -10.212 c 19.386 -2.97 40.968 -4.963 63.883 -5.736 c 22.945 0.763 44.558 2.746 63.985 5.736 c 19.945 3.051 37.591 7.15 52.003 12.032 C 376.776 210.588 385.879 214.758 392.714 219.274 z"
           transform=" translate(-254.03, -219.27)"
           style="stroke: none; stroke-width: 1; stroke-dasharray: none; stroke-linecap: butt; stroke-dashoffset: 0; stroke-linejoin: miter; stroke-miterlimit: 4; fill: url(#SVGID_13); fill-rule: nonzero; opacity: 1;" /></g><g
         id="g74"
         transform="matrix(1 0 0 1 -70.39 -176.89)"><linearGradient
           y2="101.143"
           x2="25.251000000000005"
           y1="0"
           x1="0"
           gradientTransform="matrix(1 0 0 1 172.98 28.53)"
           gradientUnits="userSpaceOnUse"
           id="SVGID_14"><stop
             id="stop69"
             style="stop-color:rgb(235,229,221);stop-opacity: 1"
             offset="0%" /></linearGradient><path
           id="path72"
           stroke-linecap="round"
           d="M 198.232 36.162 c 0 -4.214 -3.415 -7.628 -7.628 -7.628 s -7.628 3.414 -7.628 7.628 c 0 4.758 -1.364 6.712 -3.624 9.948 c -2.689 3.851 -6.371 9.125 -6.371 18.682 s 3.683 14.831 6.371 18.683 c 2.26 3.236 3.624 5.19 3.624 9.947 c 0 4.757 -1.364 6.711 -3.624 9.946 c -2.689 3.851 -6.371 9.125 -6.371 18.681 c 0 4.213 3.414 7.628 7.628 7.628 l 0 0 c 4.213 0 7.628 -3.414 7.628 -7.628 c 0 -4.757 1.364 -6.711 3.624 -9.946 c 2.688 -3.851 6.371 -9.125 6.371 -18.681 c 0 -9.557 -3.682 -14.83 -6.371 -18.681 c -2.26 -3.237 -3.624 -5.191 -3.624 -9.949 s 1.364 -6.713 3.624 -9.949 C 194.549 50.992 198.232 45.719 198.232 36.162 z"
           transform=" translate(-185.61, -79.11)"
           style="stroke: none; stroke-width: 1; stroke-dasharray: none; stroke-linecap: butt; stroke-dashoffset: 0; stroke-linejoin: miter; stroke-miterlimit: 4; fill: url(#SVGID_14); fill-rule: nonzero; opacity: 1;" /></g><g
         id="g81"
         transform="matrix(1 0 0 1 15.27 -176.89)"><linearGradient
           y2="101.14299999999999"
           x2="25.250999999999976"
           y1="0"
           x1="0"
           gradientTransform="matrix(1 0 0 1 258.64 28.53)"
           gradientUnits="userSpaceOnUse"
           id="SVGID_15"><stop
             id="stop76"
             style="stop-color:rgb(235,229,221);stop-opacity: 1"
             offset="0%" /></linearGradient><path
           id="path79"
           stroke-linecap="round"
           d="M 273.897 64.792 c 0 -4.759 1.364 -6.713 3.624 -9.949 c 2.689 -3.851 6.371 -9.124 6.371 -18.681 c 0 -4.214 -3.414 -7.628 -7.628 -7.628 s -7.628 3.414 -7.628 7.628 c 0 4.758 -1.364 6.712 -3.624 9.948 c -2.689 3.851 -6.371 9.125 -6.371 18.682 s 3.682 14.831 6.371 18.682 c 2.26 3.237 3.624 5.191 3.624 9.948 c 0 4.757 -1.364 6.711 -3.624 9.946 c -2.689 3.851 -6.371 9.125 -6.371 18.681 c 0 4.214 3.414 7.628 7.628 7.628 s 7.628 -3.414 7.628 -7.628 c 0 -4.758 1.364 -6.711 3.624 -9.946 c 2.689 -3.851 6.371 -9.125 6.371 -18.681 c 0 -9.557 -3.682 -14.83 -6.371 -18.681 C 275.261 71.505 273.897 69.551 273.897 64.792 z"
           transform=" translate(-271.27, -79.11)"
           style="stroke: none; stroke-width: 1; stroke-dasharray: none; stroke-linecap: butt; stroke-dashoffset: 0; stroke-linejoin: miter; stroke-miterlimit: 4; fill: url(#SVGID_15); fill-rule: nonzero; opacity: 1;" /></g><g
         id="g88"
         transform="matrix(1 0 0 1 -27.56 -191.69)"><linearGradient
           y2="128.626"
           x2="25.251000000000005"
           y1="0"
           x1="0"
           gradientTransform="matrix(1 0 0 1 215.81 0)"
           gradientUnits="userSpaceOnUse"
           id="SVGID_16"><stop
             id="stop83"
             style="stop-color:rgb(235,229,221);stop-opacity: 1"
             offset="0%" /></linearGradient><path
           id="path86"
           stroke-linecap="round"
           d="M 241.061 7.628 c 0 -4.214 -3.415 -7.628 -7.628 -7.628 s -7.628 3.414 -7.628 7.628 c 0 7.556 -1.814 10.987 -4.112 15.329 c -2.621 4.955 -5.883 11.122 -5.883 22.462 s 3.262 17.508 5.883 22.463 c 2.298 4.344 4.112 7.775 4.112 15.329 c 0 7.554 -1.814 10.983 -4.112 15.326 c -2.621 4.954 -5.883 11.121 -5.883 22.461 c 0 4.214 3.415 7.628 7.628 7.628 s 7.628 -3.414 7.628 -7.628 c 0 -7.554 1.814 -10.984 4.112 -15.327 c 2.621 -4.954 5.883 -11.121 5.883 -22.46 c 0 -11.34 -3.262 -17.508 -5.883 -22.463 c -2.298 -4.344 -4.112 -7.775 -4.112 -15.329 s 1.814 -10.986 4.112 -15.328 C 237.799 25.136 241.061 18.97 241.061 7.628 z"
           transform=" translate(-228.44, -64.31)"
           style="stroke: none; stroke-width: 1; stroke-dasharray: none; stroke-linecap: butt; stroke-dashoffset: 0; stroke-linejoin: miter; stroke-miterlimit: 4; fill: url(#SVGID_16); fill-rule: nonzero; opacity: 1;" /></g></g></g><g
     id="logo-name"
     style=""
     transform="matrix(2.11 0 0 2.11 276.06 273.56)"><linearGradient
       y2="33.89999999999999"
       x2="0"
       y1="0"
       x1="0"
       gradientTransform="matrix(1 0 0 1 -1 -16.95)"
       gradientUnits="userSpaceOnUse"
       id="SVGID_2"><stop
         id="stop93"
         style="stop-color:rgb(255,255,255);stop-opacity: 1"
         offset="0%" /></linearGradient><text
       id="text96"
       style="stroke: none; stroke-width: 1; stroke-dasharray: none; stroke-linecap: butt; stroke-dashoffset: 0; stroke-linejoin: miter; stroke-miterlimit: 4; fill: url(#SVGID_2); fill-rule: nonzero; opacity: 1; white-space: pre;"
       font-weight="normal"
       font-style="normal"
       font-size="30"
       font-family="Crushed"
       xml:space="preserve" />
</g></svg>